<svg width="20" height="12" viewBox="0 0 20 12" fill="none" xmlns="http://www.w3.org/2000/svg">
<path fill-rule="evenodd" clip-rule="evenodd" d="M8.9195 0.439765C9.2012 0.15815 9.58322 -5.24521e-05 9.98154 -5.24521e-05C10.3799 -5.24521e-05 10.7619 0.15815 11.0436 0.439765L19.5414 8.93759C19.6849 9.07616 19.7993 9.24191 19.878 9.42519C19.9568 9.60846 19.9982 9.80557 19.9999 10.005C20.0017 10.2045 19.9637 10.4023 19.8881 10.5869C19.8126 10.7715 19.7011 10.9392 19.56 11.0803C19.419 11.2213 19.2513 11.3329 19.0666 11.4084C18.882 11.4839 18.6842 11.5219 18.4848 11.5202C18.2853 11.5185 18.0882 11.477 17.9049 11.3983C17.7217 11.3196 17.5559 11.2051 17.4173 11.0617L9.98154 3.62588L2.54576 11.0617C2.26244 11.3353 1.88299 11.4867 1.48912 11.4833C1.09526 11.4799 0.718494 11.3219 0.439978 11.0434C0.161461 10.7649 0.0034771 10.3881 5.53131e-05 9.99422C-0.00336647 9.60035 0.148045 9.2209 0.421677 8.93759L8.9195 0.439765Z" fill="white"/>
</svg>
