<svg width="37" height="40" viewBox="0 0 37 40" fill="none" xmlns="http://www.w3.org/2000/svg">
<path d="M34.1818 7.27273H27.6364V5.09091C27.6364 3.74072 27.1 2.44582 26.1453 1.49109C25.1905 0.536362 23.8956 0 22.5455 0H13.8182C12.468 0 11.1731 0.536362 10.2184 1.49109C9.26364 2.44582 8.72727 3.74072 8.72727 5.09091V7.27273H2.18182C1.60316 7.27273 1.04821 7.5026 0.63904 7.91177C0.22987 8.32094 0 8.87589 0 9.45455C0 10.0332 0.22987 10.5882 0.63904 10.9973C1.04821 11.4065 1.60316 11.6364 2.18182 11.6364H2.90909V36.3636C2.90909 37.3281 3.29221 38.253 3.97416 38.9349C4.65611 39.6169 5.58103 40 6.54545 40H29.8182C30.7826 40 31.7075 39.6169 32.3895 38.9349C33.0714 38.253 33.4545 37.3281 33.4545 36.3636V11.6364H34.1818C34.7605 11.6364 35.3154 11.4065 35.7246 10.9973C36.1338 10.5882 36.3636 10.0332 36.3636 9.45455C36.3636 8.87589 36.1338 8.32094 35.7246 7.91177C35.3154 7.5026 34.7605 7.27273 34.1818 7.27273ZM13.0909 5.09091C13.0909 4.89802 13.1675 4.71304 13.3039 4.57665C13.4403 4.44026 13.6253 4.36364 13.8182 4.36364H22.5455C22.7383 4.36364 22.9233 4.44026 23.0597 4.57665C23.1961 4.71304 23.2727 4.89802 23.2727 5.09091V7.27273H13.0909V5.09091ZM29.0909 35.6364H7.27273V11.6364H29.0909V35.6364ZM16 17.4545V29.0909C16 29.6696 15.7701 30.2245 15.361 30.6337C14.9518 31.0429 14.3968 31.2727 13.8182 31.2727C13.2395 31.2727 12.6846 31.0429 12.2754 30.6337C11.8662 30.2245 11.6364 29.6696 11.6364 29.0909V17.4545C11.6364 16.8759 11.8662 16.3209 12.2754 15.9118C12.6846 15.5026 13.2395 15.2727 13.8182 15.2727C14.3968 15.2727 14.9518 15.5026 15.361 15.9118C15.7701 16.3209 16 16.8759 16 17.4545ZM24.7273 17.4545V29.0909C24.7273 29.6696 24.4974 30.2245 24.0882 30.6337C23.6791 31.0429 23.1241 31.2727 22.5455 31.2727C21.9668 31.2727 21.4118 31.0429 21.0027 30.6337C20.5935 30.2245 20.3636 29.6696 20.3636 29.0909V17.4545C20.3636 16.8759 20.5935 16.3209 21.0027 15.9118C21.4118 15.5026 21.9668 15.2727 22.5455 15.2727C23.1241 15.2727 23.6791 15.5026 24.0882 15.9118C24.4974 16.3209 24.7273 16.8759 24.7273 17.4545Z" fill="white"/>
</svg>
